#!OML:ASF F:\VICON\USERDATA\INSTALL\rory7\rory7.ASF
:FULLY-SPECIFIED
:DEGREES
1423
root -2.69762 18.0607 -1.89064 -171.746 -77.0088 165.647
lowerback 15.8122 4.97195 -2.64705
upperback 2.54224 5.9457 -0.318152
thorax -6.35123 2.88876 -0.0976143
lowerneck -6.25997 2.88961 -3.35134
upperneck -21.5617 4.2555 7.53451
head -5.70908 1.48271 2.88044
rclavicle -2.50966e-014 2.38542e-015
rhumerus -16.535 0.642219 -62.1459
rradius 108.861
rwrist 13.8742
rhand -40.4156 15.4549
rfingers 7.12502
rthumb -13.3684 -14.0963
lclavicle -2.50966e-014 2.38542e-015
lhumerus -21.7158 -5.0628 81.088
lradius 34.2375
lwrist -2.94938
lhand -30.4013 20.6658
lfingers 7.12502
lthumb -3.70496 50.6133
rfemur -9.99498 9.99012 11.7288
rtibia 53.7034
rfoot -26.7155 -11.8729
rtoes -7.66448
lfemur -6.85545 2.86239 -24.7049
ltibia 35.2577
lfoot -22.2502 6.37502
ltoes 2.58377
1424
root -2.7159 18.0736 -1.94124 -166.577 -77.482 160.978
lowerback 15.2604 4.94716 -3.26165
upperback 2.45588 5.81969 -0.606512
thorax -6.1697 2.84268 0.00671159
lowerneck -6.64039 2.86953 -3.34811
upperneck -21.48 4.2168 7.50038
head -5.61809 1.47382 2.87448
rclavicle 4.76835e-014 -8.34896e-015
rhumerus -16.2972 0.669718 -61.998
rradius 108.879
rwrist 13.959
rhand -40.4292 15.3001
rfingers 7.12502
rthumb -13.3815 -14.2501
lclavicle 4.76835e-014 -8.34896e-015
lhumerus -20.9315 -5.66227 81.2919
lradius 34.8387
lwrist -3.34857
lhand -29.9166 20.3596
lfingers 7.12502
lthumb -3.23694 50.3148
rfemur -10.686 10.6228 10.0445
rtibia 52.2566
rfoot -27.2343 -12.0873
rtoes -6.57308
lfemur -7.116 2.3786 -25.5621
ltibia 34.6631
lfoot -22.0625 6.18474
ltoes 1.95977
1425
root -2.71423 18.0648 -1.96558 -154.783 -77.4087 149.714
lowerback 14.9465 4.96818 -4.89906
upperback 2.24954 5.53782 -1.36615
thorax -6.28802 2.73307 0.184631
lowerneck -6.94581 2.84159 -3.31633
upperneck -21.4317 4.17016 7.47227
head -5.54931 1.45659 2.86511
rclavicle 6.09772e-014 -3.4191e-014
rhumerus -16.0781 0.74329 -61.8137
rradius 108.91
rwrist 13.9226
rhand -40.4336 15.2765
rfingers 7.12502
rthumb -13.3857 -14.2734
lclavicle 6.09772e-014 -3.4191e-014
lhumerus -20.2302 -6.43159 81.5404
lradius 35.5332
lwrist -3.41662
lhand -30.5338 20.4334
lfingers 7.12502
lthumb -3.83292 50.3787
rfemur -11.6889 10.7755 6.4662
rtibia 50.8457
rfoot -27.4255 -11.7674
rtoes -6.07775
lfemur -7.58108 1.70428 -28.0752
ltibia 34.0126
lfoot -21.9106 6.05465
ltoes 1.43793
1426
root -2.74998 18.103 -2.07765 -164.473 -79.2402 158.91
lowerback 15.5107 4.69382 -2.97496
upperback 2.43782 5.53264 -0.488945
thorax -6.30129 2.69895 0.0117611
lowerneck -7.15079 2.85077 -3.33805
upperneck -21.4374 4.19172 7.53323
head -5.52035 1.46823 2.89077
rclavicle -3.94588e-014 2.40529e-014
rhumerus -15.8066 0.915537 -61.5574
rradius 108.927
rwrist 13.7823
rhand -40.5626 15.0191
rfingers 7.12502
rthumb -13.5101 -14.5227
lclavicle -3.94588e-014 2.40529e-014
lhumerus -19.674 -7.53218 81.7548
lradius 36.4618
lwrist -2.98065
lhand -32.2741 21.3041
lfingers 7.12502
lthumb -5.51342 51.2123
rfemur -10.3367 12.2943 9.38856
rtibia 48.9138
rfoot -28.031 -13.1111
rtoes -5.50172
lfemur -6.46738 1.17057 -24.9839
ltibia 33.595
lfoot -21.9337 5.21071
ltoes 0.684923
1427
root -2.77649 18.1237 -2.15284 -165.592 -80.2673 160.12
lowerback 15.4573 4.51571 -2.45326
upperback 2.43148 5.40564 -0.287255
thorax -6.24675 2.63074 -0.0340658
lowerneck -7.3806 2.86555 -3.44627
upperneck -21.4447 4.23461 7.67049
head -5.49189 1.49275 2.95558
rclavicle 2.82523e-014 -1.09332e-014
rhumerus -15.4759 1.08905 -61.2385
rradius 108.908
rwrist 13.7443
rhand -41.0694 13.9993
rfingers 7.12502
rthumb -13.9985 -15.5093
lclavicle 2.82523e-014 -1.09332e-014
lhumerus -19.0312 -8.43187 81.8538
lradius 37.3248
lwrist -3.12292
lhand -32.9102 21.7287
lfingers 7.12502
lthumb -6.12748 51.6201
rfemur -10.0568 13.0854 9.57811
rtibia 47.0621
rfoot -28.4138 -13.2135
rtoes -5.07862
lfemur -6.21586 0.613524 -24.1631
ltibia 33.1821
lfoot -21.8635 4.72917
ltoes -0.437096
1428
root -2.79754 18.1384 -2.22318 -161.769 -81.0089 156.436
lowerback 15.3386 4.42224 -2.67826
upperback 2.41499 5.24857 -0.334538
thorax -6.21132 2.56002 0.0821908
lowerneck -7.57868 2.85627 -3.49573
upperneck -21.5286 4.23098 7.72404
head -5.48803 1.49146 2.98535
rclavicle -4.89756e-014 1.98785e-016
rhumerus -15.0665 1.17281 -60.8696
rradius 108.865
rwrist 13.7381
rhand -41.423 13.4228
rfingers 7.12502
rthumb -14.3393 -16.062
lclavicle -4.89756e-014 1.98785e-016
lhumerus -18.2173 -8.97943 81.8804
lradius 38.0143
lwrist -3.90351
lhand -32.4243 21.468
lfingers 7.12502
lthumb -5.65843 51.3724
rfemur -9.90333 13.8541 8.69463
rtibia 45.0417
rfoot -28.5188 -12.8351
rtoes -5.16138
lfemur -6.17722 0.151065 -24.2838
ltibia 32.9236
lfoot -21.8686 4.41711
ltoes -1.94308
1429
root -2.81868 18.1559 -2.29946 -158.51 -81.8051 153.197
lowerback 15.4223 4.32439 -2.82764
upperback 2.386 5.09708 -0.280232
thorax -6.30192 2.49085 0.246701
lowerneck -7.64991 2.81985 -3.41947
upperneck -21.6756 4.15808 7.56998
head -5.51559 1.45551 2.92752
rclavicle -7.70291e-015 -6.75868e-015
rhumerus -14.6508 1.19202 -60.5199
rradius 108.805
rwrist 13.767
rhand -41.3603 13.353
rfingers 7.12502
rthumb -14.2788 -16.1361
lclavicle -7.70291e-015 -6.75868e-015
lhumerus -17.4592 -9.72686 81.9106
lradius 38.7769
lwrist -4.36495
lhand -32.215 21.2396
lfingers 7.12502
lthumb -5.45635 51.1494
rfemur -9.61356 14.9602 8.14567
rtibia 43.1869
rfoot -28.5942 -12.6477
rtoes -5.18806
lfemur -5.91114 -0.11573 -24.13
ltibia 32.4169
lfoot -21.8012 3.94202
ltoes -3.67257
1430
root -2.84194 18.1744 -2.37324 -155.907 -82.6874 150.704
lowerback 15.5061 4.15154 -2.57643
upperback 2.28405 4.91074 -0.293782
thorax -6.42822 2.39731 0.121755
lowerneck -7.71245 2.78072 -3.29606
upperneck -21.7669 4.08948 7.47551
head -5.52705 1.41695 2.87981
rclavicle -2.36305e-014 -1.59028e-015
rhumerus -14.2414 1.22618 -60.3591
rradius 108.735
rwrist 13.8618
rhand -41.409 13.161
rfingers 7.12502
rthumb -14.3258 -16.3247
lclavicle -2.36305e-014 -1.59028e-015
lhumerus -16.7489 -10.7349 81.6786
lradius 39.681
lwrist -4.37535
lhand -32.4439 21.579
lfingers 7.12502
lthumb -5.67731 51.4829
rfemur -9.35913 16.1923 7.8188
rtibia 41.3568
rfoot -28.8319 -12.4125
rtoes -4.31716
lfemur -5.72265 -0.545354 -23.7567
ltibia 31.8506
lfoot -21.7856 3.42174
ltoes -4.73082
1431
root -2.86696 18.1961 -2.44702 -153.036 -83.5141 148.049
lowerback 15.4159 3.99505 -2.21617
upperback 2.20864 4.76818 -0.346995
thorax -6.42104 2.32222 -0.101803
lowerneck -7.92152 2.74362 -3.33848
upperneck -21.7416 4.05421 7.56132
head -5.48498 1.40344 2.91809
rclavicle 7.65321e-015 4.37326e-015
rhumerus -13.6793 1.20846 -60.1746
rradius 108.714
rwrist 13.8733
rhand -41.2553 13.3505
rfingers 7.12502
rthumb -14.1777 -16.1457
lclavicle 7.65321e-015 4.37326e-015
lhumerus -15.8901 -11.7963 81.2123
lradius 40.6545
lwrist -4.17592
lhand -32.7615 22.0859
lfingers 7.12502
lthumb -5.98398 51.9814
rfemur -9.30435 16.9395 7.62219
rtibia 39.5437
rfoot -28.0199 -13.7033
rtoes -8.04774
lfemur -5.61919 -1.24176 -23.3981
ltibia 31.2598
lfoot -21.6821 3.18869
ltoes -4.95875
1432
root -2.89068 18.2141 -2.52804 -148.706 -84.2329 143.962
lowerback 15.2435 3.93108 -2.25119
upperback 2.13631 4.69642 -0.246986
thorax -6.41371 2.29292 0.0464002
lowerneck -8.03346 2.68734 -3.54127
upperneck -21.7965 3.98955 7.5638
head -5.48429 1.38972 2.9572
rclavicle -3.95333e-014 1.07344e-014
rhumerus -13.0393 1.14928 -59.7006
rradius 108.683
rwrist 13.7215
rhand -40.6384 13.9986
rfingers 7.12502
rthumb -13.5831 -15.5383
lclavicle -3.95333e-014 1.07344e-014
lhumerus -15.0682 -12.6741 80.9184
lradius 41.7083
lwrist -3.948
lhand -31.7722 19.5122
lfingers 7.12502
lthumb -5.02875 49.4326
rfemur -9.13067 18.397 7.18858
rtibia 37.7772
rfoot -28.4778 -13.031
rtoes -5.64206
lfemur -5.5531 -1.80741 -23.1071
ltibia 30.6603
lfoot -21.4024 2.8727
ltoes -4.48828
1433
root -2.91988 18.2357 -2.60974 -143.009 -84.8722 138.394
lowerback 15.0833 3.8603 -2.37641
upperback 2.12187 4.59758 -0.154082
thorax -6.35661 2.25078 0.244512
lowerneck -7.97334 2.63566 -3.56375
upperneck -22.0748 3.89581 7.36839
head -5.57542 1.34814 2.90319
rclavicle 3.73715e-014 -7.95139e-016
rhumerus -12.3865 1.25356 -59.2102
rradius 108.582
rwrist 13.6512
rhand -40.948 13.2154
rfingers 7.12502
rthumb -13.8815 -16.3013
lclavicle 3.73715e-014 -7.95139e-016
lhumerus -14.2404 -13.2767 80.5522
lradius 42.7894
lwrist -3.8148
lhand -30.7229 16.9033
lfingers 7.12502
lthumb -4.01553 46.8452
rfemur -8.95621 19.2368 6.88022
rtibia 36.1525
rfoot -27.8285 -14.2405
rtoes -9.14466
lfemur -5.34814 -2.35798 -22.8746
ltibia 30.0617
lfoot -21.1464 2.45857
ltoes -3.40525
1434
root -2.94892 18.2524 -2.69378 -136.484 -85.4576 131.949
lowerback 14.919 3.75436 -2.3475
upperback 2.16966 4.4699 -0.135961
thorax -6.21113 2.18837 0.2864
lowerneck -7.98558 2.62362 -3.52335
upperneck -22.3502 3.85779 7.2212
head -5.65714 1.32606 2.85361
rclavicle 2.10712e-014 -5.56597e-015
rhumerus -11.5505 1.44411 -58.7882
rradius 108.435
rwrist 13.6591
rhand -39.2737 16.559
rfingers 7.12502
rthumb -12.2676 -13.0611
lclavicle 2.10712e-014 -5.56597e-015
lhumerus -13.2228 -13.8203 79.9207
lradius 43.7979
lwrist -3.57587
lhand -31.5558 18.8089
lfingers 7.12502
lthumb -4.81981 48.7341
rfemur -8.70321 20.5325 6.53717
rtibia 34.6697
rfoot -28.3371 -14.0079
rtoes -7.58669
lfemur -5.11461 -2.93209 -22.6091
ltibia 29.51
lfoot -20.9364 2.25141
ltoes -2.82586
1435
root -2.97536 18.2696 -2.78068 -128.301 -85.9993 123.81
lowerback 14.8983 3.66823 -2.32504
upperback 2.16123 4.36367 -0.111037
thorax -6.20603 2.13714 0.322809
lowerneck -8.01828 2.60021 -3.59389
upperneck -22.5088 3.83425 7.22969
head -5.70268 1.31645 2.87154
rclavicle 1.76421e-014 0
rhumerus -10.672 1.3846 -58.3096
rradius 108.219
rwrist 13.5495
rhand -39.5668 15.4351
rfingers 7.12502
rthumb -12.5501 -14.168
lclavicle 1.76421e-014 0
lhumerus -12.2069 -14.3904 79.2179
lradius 44.8093
lwrist -3.17314
lhand -31.5139 20.0849
lfingers 7.12502
lthumb -4.77933 50.011
rfemur -8.47531 21.3699 6.37534
rtibia 33.3839
rfoot -28.233 -14.5661
rtoes -8.08135
lfemur -4.87953 -3.2664 -22.2764
ltibia 28.9875
lfoot -20.6599 2.06891
ltoes -3.62797
1436
root -2.99972 18.2831 -2.87308 -116.273 -86.3374 111.796
lowerback 14.961 3.59565 -2.4649
upperback 2.13099 4.2442 -0.114416
thorax -6.27925 2.08276 0.41688
lowerneck -8.01807 2.531 -3.67957
upperneck -22.6507 3.74886 7.23114
head -5.74462 1.27937 2.89078
rclavicle -8.74653e-015 4.37326e-015
rhumerus -9.76153 1.29839 -57.7663
rradius 107.985
rwrist 13.4778
rhand -40.0604 13.4882
rfingers 7.12502
rthumb -13.026 -16.0851
lclavicle -8.74653e-015 4.37326e-015
lhumerus -11.2201 -15.0107 78.4358
lradius 45.9446
lwrist -2.5626
lhand -30.8155 19.4255
lfingers 7.12502
lthumb -4.10496 49.3657
rfemur -8.20458 22.2603 6.10698
rtibia 32.2226
rfoot -28.2784 -14.7768
rtoes -7.31041
lfemur -4.71587 -3.5969 -22.0843
ltibia 28.6022
lfoot -20.3673 2.01221
ltoes -5.16667
1437
root -3.02542 18.2986 -2.96766 -102.412 -86.366 98.0359
lowerback 14.8443 3.53634 -2.72088
upperback 2.14134 4.12567 -0.172601
thorax -6.21424 2.03043 0.530178
lowerneck -8.05933 2.45688 -3.63812
upperneck -22.8123 3.63233 7.11807
head -5.78123 1.22296 2.85285
rclavicle -1.47101e-014 0
rhumerus -8.70487 1.31626 -57.1523
rradius 107.799
rwrist 13.3438
rhand -40.1377 12.7935
rfingers 7.12502
rthumb -13.1005 -16.775
lclavicle -1.47101e-014 0
lhumerus -10.1256 -15.6371 77.4963
lradius 47.1573
lwrist -1.91059
lhand -30.9638 19.4499
lfingers 7.12502
lthumb -4.24816 49.3872
rfemur -8.03292 23.0138 5.74439
rtibia 31.2275
rfoot -28.2046 -15.1074
rtoes -7.10871
lfemur -4.6879 -4.0875 -22.0298
ltibia 28.3433
lfoot -20.0831 1.88854
ltoes -5.22955
